<svg xmlns="http://www.w3.org/2000/svg" id="svg4076" version="1.1" height="42.367" width="145.693"><defs id="defs3984"><linearGradient gradientTransform="scale(.71815 1.39246)" gradientUnits="userSpaceOnUse" y2="-505.65" x2="407.393" y1="-493.892" x1="430.172" id="a"><stop id="stop3946" stop-color="#0083ce" offset="0"/><stop id="stop3948" stop-color="#0085cf" offset=".007"/><stop id="stop3950" stop-color="#00a5e0" offset=".26"/><stop id="stop3952" stop-color="#00a6cc" offset=".512"/><stop id="stop3954" stop-color="#00a6c6" offset=".76"/><stop id="stop3956" stop-color="#00a6c3" offset="1"/></linearGradient><linearGradient gradientTransform="scale(1.09022 .91725)" gradientUnits="userSpaceOnUse" y2="-766.776" x2="265.093" y1="-766.776" x1="286.729" id="b"><stop id="stop3959" stop-color="#ffc700" offset="0"/><stop id="stop3961" stop-color="#fe9b16" offset=".409"/><stop id="stop3963" stop-color="#f8801c" offset=".775"/><stop id="stop3965" stop-color="#f6761e" offset="1"/></linearGradient><linearGradient gradientTransform="scale(1.1388 .87811)" gradientUnits="userSpaceOnUse" y2="-833.431" x2="254.136" y1="-808.148" x1="273.605" id="c"><stop id="stop3968" stop-color="#e7223f" offset="0"/><stop id="stop3970" stop-color="#d10352" offset="1"/></linearGradient><linearGradient gradientTransform="scale(1.13869 .8782)" gradientUnits="userSpaceOnUse" y2="-785.686" x2="267.334" y1="-774.4" x1="258.634" id="d"><stop id="stop3973" stop-color="#00965b" offset="0"/><stop id="stop3975" stop-color="#009d5b" offset=".068"/><stop id="stop3977" stop-color="#009d54" offset=".476"/><stop id="stop3979" stop-color="#009d4e" offset=".801"/><stop id="stop3981" stop-color="#009d4d" offset="1"/></linearGradient><style id="style3944">.a,.i{fill:#fff}.b{fill:#313647}.c{fill:url(#a)}.d{fill:url(#b)}.e{fill:url(#c)}.f{fill:url(#d)}.g{opacity:.2}.g,.h,.i{isolation:isolate}.h{fill:#0b070c;opacity:.12}.i{opacity:.25}</style></defs><g id="g4587"><rect y="0" x="0" class="a" width="145.693" height="42.367" rx="2.165" id="rect3986" fill="#fff"/><g transform="translate(16.367 6.942)" id="g4036"><path class="b" d="M334.712 505.221a4.146 4.146 0 104.164 4.144 4.087 4.087 0 00-4.164-4.144zm0 6.658a2.519 2.519 0 112.342-2.514 2.4 2.4 0 01-2.342 2.514zm-9.078-6.658a4.146 4.146 0 104.161 4.144 4.087 4.087 0 00-4.161-4.144zm0 6.658a2.519 2.519 0 112.339-2.514 2.4 2.4 0 01-2.339 2.514zm-10.8-5.386v1.758h4.211a3.682 3.682 0 01-.958 2.214 4.311 4.311 0 01-3.253 1.289 4.681 4.681 0 010-9.361 4.474 4.474 0 013.172 1.258l1.242-1.242a6.136 6.136 0 00-4.414-1.775 6.439 6.439 0 100 12.877 5.885 5.885 0 004.492-1.806 5.806 5.806 0 001.525-4.114 5.887 5.887 0 00-.094-1.1zM359 507.86a3.854 3.854 0 00-3.55-2.639 3.94 3.94 0 00-3.911 4.144 4.06 4.06 0 004.117 4.147 4.12 4.12 0 003.453-1.836l-1.411-.944a2.371 2.371 0 01-2.042 1.147 2.112 2.112 0 01-2.011-1.256l5.544-2.294zm-5.653 1.38a2.272 2.272 0 012.167-2.417 1.608 1.608 0 011.539.878zm-4.508 4.022h1.822v-12.185h-1.821zm-2.983-7.114h-.064a2.863 2.863 0 00-2.183-.928 4.15 4.15 0 000 8.292 2.823 2.823 0 002.183-.942h.064v.6c0 1.586-.847 2.433-2.214 2.433a2.291 2.291 0 01-2.089-1.478l-1.586.661a3.949 3.949 0 003.675 2.45c2.136 0 3.942-1.255 3.942-4.319v-7.444h-1.728zm-2.089 5.731a2.522 2.522 0 010-5.025 2.533 2.533 0 010 5.025zm23.766-10.8h-4.358v12.186h1.817v-4.619h2.542a3.789 3.789 0 100-7.567zm.047 5.872h-2.589v-4.178h2.589a2.089 2.089 0 110 4.178zm11.239-1.75a3.413 3.413 0 00-3.244 1.867l1.614.672a1.727 1.727 0 011.664-.892 1.751 1.751 0 011.911 1.567v.125a4.005 4.005 0 00-1.9-.469c-1.739 0-3.511.956-3.511 2.742a2.818 2.818 0 003.025 2.683 2.574 2.574 0 002.322-1.196h.061v.939h1.755v-4.672c.004-2.16-1.61-3.367-3.696-3.367zm-.22 6.678c-.594 0-1.425-.3-1.425-1.033 0-.942 1.033-1.3 1.928-1.3a3.227 3.227 0 011.661.408 2.206 2.206 0 01-2.163 1.922zm10.317-6.411l-2.086 5.283h-.061l-2.164-5.283h-1.961l3.247 7.383-1.85 4.108h1.9l5-11.491zm-16.383 7.8h1.819v-12.191h-1.819z" transform="translate(-278.018 -489.338)" id="path3988" fill="#313647"/><g transform="translate(0 1.641)" id="g4008"><path class="c" d="M297.851 497.342a1.953 1.953 0 00-.45 1.369v21.559a1.949 1.949 0 00.45 1.37l.072.069L310 509.634v-.286l-12.078-12.075z" transform="translate(-297.401 -496.956)" id="path3990" fill="url(#a)"/><path class="d" d="M305.962 508.51l-4.025-4.028v-.282l4.025-4.025.092.053 4.769 2.708c1.361.775 1.361 2.042 0 2.817l-4.769 2.708z" transform="translate(-289.337 -491.804)" id="path3992" fill="url(#b)"/><path class="e" d="M313.829 505.789l-4.117-4.117-12.15 12.147a1.592 1.592 0 002.028.061l14.239-8.091" transform="translate(-297.113 -489.135)" id="path3994" fill="url(#c)"/><path class="f" d="M313.829 505.576l-14.239-8.089a1.588 1.588 0 00-2.028.058l12.15 12.15z" transform="translate(-297.113 -497.159)" id="path3996" fill="url(#d)"/><g transform="translate(0 16.562)" id="g4002"><path style="isolation:isolate" class="g" d="M313.738 503.121l-14.147 8.039a1.629 1.629 0 01-1.956.011l-.072.072.072.072a1.624 1.624 0 001.956-.008l14.239-8.091z" transform="translate(-297.113 -503.121)" id="path3998" opacity=".2"/><path style="isolation:isolate" class="h" d="M297.851 506.87a1.954 1.954 0 01-.45-1.369v.142a1.949 1.949 0 00.45 1.369l.072-.072z" transform="translate(-297.401 -498.89)" id="path4000" opacity=".12" fill="#0b070c"/></g><path style="isolation:isolate" class="g" d="M308.247 502.936l-4.861 2.761.092.092 4.769-2.711a1.711 1.711 0 001.022-1.406 1.818 1.818 0 01-1.022 1.264z" transform="translate(-286.761 -489.135)" id="path4004" opacity=".2"/><path style="isolation:isolate" class="i" d="M299.879 497.629l19.008 10.8a1.822 1.822 0 011.022 1.267 1.711 1.711 0 00-1.022-1.408l-19.008-10.8c-1.364-.775-2.478-.131-2.478 1.428v.144c-.001-1.56 1.114-2.203 2.478-1.431z" transform="translate(-297.401 -497.159)" id="path4006" opacity=".25" fill="#fff"/></g><g transform="translate(30.572)" id="g4034"><path class="b" d="M308.407 502.959v-5.85h1.793a2.91 2.91 0 012.158.814 3.161 3.161 0 010 4.222 2.91 2.91 0 01-2.158.814zm.753-.719h1.04a2.208 2.208 0 100-4.411h-1.04z" transform="translate(-308.407 -495.606)" id="path4010" fill="#313647"/><path class="b" d="M310.5 502.959v-5.85h.75v5.85z" transform="translate(-304.688 -495.606)" id="path4012" fill="#313647"/><path class="b" d="M313.152 503.173a2.176 2.176 0 01-1.244-.417 1.919 1.919 0 01-.8-1.167l.686-.278a1.545 1.545 0 00.5.811 1.267 1.267 0 00.853.33 1.386 1.386 0 00.839-.255.826.826 0 00.344-.7.9.9 0 00-.344-.756 3.619 3.619 0 00-1.1-.494 2.918 2.918 0 01-1.175-.633 1.323 1.323 0 01-.4-.992 1.451 1.451 0 01.5-1.094 1.817 1.817 0 011.3-.467 1.886 1.886 0 011.211.372 1.719 1.719 0 01.6.814l-.686.286a1 1 0 00-.364-.517 1.276 1.276 0 00-1.486.006.74.74 0 00-.306.6.689.689 0 00.281.553 2.784 2.784 0 00.83.4c.289.094.528.183.722.269a3.294 3.294 0 01.589.347 1.4 1.4 0 01.447.539 1.719 1.719 0 01.153.747 1.625 1.625 0 01-.175.761 1.42 1.42 0 01-.467.531 2.268 2.268 0 01-.625.3 2.294 2.294 0 01-.683.104z" transform="translate(-303.602 -495.69)" id="path4014" fill="#313647"/><path class="b" d="M313.689 502.959h-.753v-5.85h1.994a1.855 1.855 0 011.286.494 1.7 1.7 0 010 2.492 1.842 1.842 0 01-1.286.494h-1.242zm0-3.089h1.258a.972.972 0 00.758-.317 1.006 1.006 0 000-1.406.964.964 0 00-.758-.319h-1.258z" transform="translate(-300.356 -495.606)" id="path4016" fill="#313647"/><path class="b" d="M319.671 502.287a3.038 3.038 0 01-4.289 0 3.16 3.16 0 010-4.336 3.025 3.025 0 014.286 0 3.153 3.153 0 010 4.333zm-3.733-.489a2.253 2.253 0 003.178 0 2.494 2.494 0 000-3.358 2.247 2.247 0 00-3.178 0 2.494 2.494 0 000 3.358z" transform="translate(-297.538 -495.69)" id="path4018" fill="#313647"/><path class="b" d="M317.065 502.959v-5.85h.914l2.844 4.55h.031l-.031-1.125v-3.425h.75v5.85h-.783l-2.975-4.769h-.031l.031 1.125v3.644z" transform="translate(-293.015 -495.606)" id="path4020" fill="#313647"/><path class="b" d="M319.17 503.921v-5.85h.753v5.85zm.7-6.305h-.653l.425-1.047h.817z" transform="translate(-289.273 -496.568)" id="path4022" fill="#313647"/><path class="b" d="M321.761 502.959l-2.058-5.85h.831l1.6 4.747h.033l1.667-4.747h.831l-2.122 5.85z" transform="translate(-288.326 -495.606)" id="path4024" fill="#313647"/><path class="b" d="M325.213 497.828h-2.664v1.856h2.4v.7h-2.4v1.853h2.664v.719H321.8v-5.85h3.417z" transform="translate(-284.605 -495.606)" id="path4026" fill="#313647"/><path class="b" d="M323.449 502.959v-5.85h.753v5.131h2.53v.719z" transform="translate(-281.666 -495.606)" id="path4028" fill="#313647"/><path class="b" d="M325.678 502.959v-5.85h.914l2.844 4.55h.031l-.031-1.125v-3.425h.75v5.85h-.786l-2.972-4.769h-.028l.033 1.125v3.644z" transform="translate(-277.704 -495.606)" id="path4030" fill="#313647"/><path class="b" d="M332.8 502.287a3.038 3.038 0 01-4.289 0 3.16 3.16 0 010-4.336 3.025 3.025 0 014.286 0 3.153 3.153 0 010 4.333zm-3.733-.489a2.253 2.253 0 003.178 0 2.494 2.494 0 000-3.358 2.247 2.247 0 00-3.178 0 2.494 2.494 0 000 3.358z" transform="translate(-274.196 -495.69)" id="path4032" fill="#313647"/></g></g></g></svg>
