<svg xmlns="http://www.w3.org/2000/svg" id="svg4076" version="1.1" height="42.367" width="145.693"><defs id="defs3984"><linearGradient gradientUnits="objectBoundingBox" y2="-49.164" x2="-.383" y1="-48.494" x1=".915" id="a"><stop id="stop3946" stop-color="#0083ce" offset="0"/><stop id="stop3948" stop-color="#0085cf" offset=".007"/><stop id="stop3950" stop-color="#00a5e0" offset=".26"/><stop id="stop3952" stop-color="#00a6cc" offset=".512"/><stop id="stop3954" stop-color="#00a6c6" offset=".76"/><stop id="stop3956" stop-color="#00a6c3" offset="1"/></linearGradient><linearGradient gradientUnits="objectBoundingBox" y2="-144.391" x2="-1.305" y1="-144.391" x1="1.076" id="b"><stop id="stop3959" stop-color="#ffc700" offset="0"/><stop id="stop3961" stop-color="#fe9b16" offset=".409"/><stop id="stop3963" stop-color="#f8801c" offset=".775"/><stop id="stop3965" stop-color="#f6761e" offset="1"/></linearGradient><linearGradient gradientUnits="objectBoundingBox" y2="-98.342" x2="-.501" y1="-96.572" x1=".862" id="c"><stop id="stop3968" stop-color="#e7223f" offset="0"/><stop id="stop3970" stop-color="#d10352" offset="1"/></linearGradient><linearGradient gradientUnits="objectBoundingBox" y2="-94.625" x2=".421" y1="-93.835" x1="-.188" id="d"><stop id="stop3973" stop-color="#00965b" offset="0"/><stop id="stop3975" stop-color="#009d5b" offset=".068"/><stop id="stop3977" stop-color="#009d54" offset=".476"/><stop id="stop3979" stop-color="#009d4e" offset=".801"/><stop id="stop3981" stop-color="#009d4d" offset="1"/></linearGradient><style id="style3944">.a{fill:#fff}.b,.j{fill:#313647}.j{fill-rule:evenodd}</style></defs><g id="g4074"><rect y="0" x="0" id="rect4038" rx="2.165" height="42.367" width="145.693" class="a" fill="#fff"/><g id="g4072" transform="translate(22.335 5.256)"><g id="g4042" transform="translate(26.875 12.269)"><path id="path4040" transform="translate(-366.216 -500.378)" d="M440.287 509.372h-6.219a2.758 2.758 0 00.9 2.1 3.066 3.066 0 002.033.653 6.774 6.774 0 002.517-.45l.325 1.442a7.711 7.711 0 01-3.13.575 4.537 4.537 0 01-3.405-1.275 4.721 4.721 0 01-1.242-3.428 5.369 5.369 0 011.153-3.517 3.992 3.992 0 013.267-1.494 3.475 3.475 0 013.053 1.494 5.113 5.113 0 01.825 2.953 5.037 5.037 0 01-.078.953m-8.914-3.367a2.774 2.774 0 00-.63-.053 1.948 1.948 0 00-1.681.822 3.081 3.081 0 00-.508 1.842v4.922h-2.083v-6.422c0-1.069 0-2.042-.039-2.9h1.8l.078 1.717h.056a3.093 3.093 0 011.039-1.458 2.408 2.408 0 011.478-.489 2.669 2.669 0 01.494.044zm-7.422 6.3a4.4 4.4 0 01-3.417 1.417 4.188 4.188 0 01-3.28-1.364 4.963 4.963 0 01-1.214-3.436 5.078 5.078 0 011.255-3.553 4.351 4.351 0 013.386-1.378 4.253 4.253 0 013.308 1.364 4.908 4.908 0 011.186 3.414 5.121 5.121 0 01-1.225 3.536m-8.522-6.619H413.1v4.581c0 1.153.436 1.722 1.242 1.722a3.875 3.875 0 00.936-.089l.067 1.569a4.625 4.625 0 01-1.608.231 2.45 2.45 0 01-1.911-.747 3.643 3.643 0 01-.686-2.517v-4.75h-1.35v-1.472h1.35v-1.75l1.964-.614v2.358h2.331zm-7.294 6.88a5.112 5.112 0 01-3.528 1.131 6.168 6.168 0 01-3.353-.806l.481-1.728a5.782 5.782 0 002.992.808 2.842 2.842 0 001.828-.528 1.722 1.722 0 00.65-1.417 1.815 1.815 0 00-.536-1.319 5.071 5.071 0 00-1.783-1q-3.4-1.262-3.4-3.7a3.273 3.273 0 011.2-2.614 4.751 4.751 0 013.181-1.014 6.354 6.354 0 012.939.611l-.525 1.692a5.113 5.113 0 00-2.483-.6 2.58 2.58 0 00-1.717.536 1.553 1.553 0 00-.517 1.175 1.594 1.594 0 00.594 1.269 6.781 6.781 0 001.878.995 6.3 6.3 0 012.461 1.578 3.3 3.3 0 01.786 2.242 3.463 3.463 0 01-1.147 2.689m-11.861-.075a3.765 3.765 0 01-2.858 1.225 2.793 2.793 0 01-2.644-1.328v4.947h-2.086v-10.1c0-1-.053-2.047-.1-3.028h1.815l.119 1.472h.036a3.487 3.487 0 013.15-1.68 3.449 3.449 0 012.755 1.294 5.134 5.134 0 011.106 3.433 5.283 5.283 0 01-1.3 3.761m-10.253 0a3.81 3.81 0 01-2.883 1.225 2.953 2.953 0 01-2.669-1.328v4.947h-2.083v-10.1c0-.994 0-2.047-.05-3.028h1.822l.117 1.472h.036a3.694 3.694 0 015.908-.383 5.142 5.142 0 011.1 3.433 5.252 5.252 0 01-1.3 3.758m-11.089 1.042l-1.208-3.8h-4.206l-1.153 3.8h-2.15l4.167-13h2.575l4.186 13zm61.4-8.119a2 2 0 00-1.653.861 3.173 3.173 0 00-.614 1.625h4.319a2.873 2.873 0 00-.4-1.608 1.826 1.826 0 00-1.65-.88m-64.721-3.167h-.036c-.13.614-.333 1.395-.617 2.472l-1.078 3.414h3.475l-1.089-3.417c-.117-.347-.339-1.122-.656-2.472m21.425 3.389a2.136 2.136 0 00-1.389.506 2.36 2.36 0 00-.8 1.339 2.575 2.575 0 00-.078.633v1.556a2.465 2.465 0 00.605 1.719 2.055 2.055 0 001.608.7 2.117 2.117 0 001.825-.9 3.971 3.971 0 00.653-2.383 3.856 3.856 0 00-.617-2.244 2.138 2.138 0 00-1.808-.922m27.569-.125a2.071 2.071 0 00-1.9 1.108 4.2 4.2 0 00-.558 2.236 4.127 4.127 0 00.558 2.2 2.121 2.121 0 003.739-.022 4.11 4.11 0 00.581-2.214 4.168 4.168 0 00-.556-2.2 2.061 2.061 0 00-1.867-1.111m-37.822.122a2.149 2.149 0 00-1.392.505 2.393 2.393 0 00-.822 1.339 2.8 2.8 0 00-.1.636v1.553a2.506 2.506 0 00.628 1.722 2.1 2.1 0 001.625.7 2.125 2.125 0 001.828-.9 3.965 3.965 0 00.653-2.383 3.819 3.819 0 00-.611-2.242 2.136 2.136 0 00-1.806-.925" class="j" fill="#313647" fill-rule="evenodd"/></g><g id="g4068" transform="translate(28.405 2.611)"><path id="path4044" transform="translate(-366.767 -496.713)" d="M366.767 497.137a13.137 13.137 0 011.947-.13 4.094 4.094 0 012.608.681 2.818 2.818 0 011.078 2.4 3.232 3.232 0 01-1.058 2.581 4.587 4.587 0 01-2.939.822 12.494 12.494 0 01-1.636-.094zm1.447 5.2a2.68 2.68 0 00.5.028 1.976 1.976 0 002.156-2.231 1.829 1.829 0 00-2.005-2.022 3.05 3.05 0 00-.65.055z" class="b" fill="#313647"/><path id="path4046" transform="translate(-362.588 -496.851)" d="M370.64 497.657a.72.72 0 01-.775.717.723.723 0 11.008-1.444.721.721 0 01.767.727zm-1.483 5.905v-4.622h1.436v4.622z" class="b" fill="#313647"/><path id="path4048" transform="translate(-361.076 -495.63)" d="M370.224 501.083a2.817 2.817 0 001.239.35c.433 0 .614-.15.614-.386 0-.236-.142-.35-.681-.531-.953-.319-1.322-.839-1.314-1.389 0-.858.739-1.511 1.881-1.511a3.108 3.108 0 011.305.264l-.256.992a2.306 2.306 0 00-1-.264c-.35 0-.547.142-.547.378 0 .217.181.33.747.531.878.3 1.247.744 1.255 1.425 0 .861-.681 1.494-2 1.494a3.277 3.277 0 01-1.495-.322z" class="b" fill="#313647"/><path id="path4050" transform="translate(-358.305 -495.63)" d="M371.563 499.269c0-.605-.019-1.125-.036-1.55h1.247l.064.644h.02a1.776 1.776 0 011.542-.747 2.092 2.092 0 011.917 2.353 2.2 2.2 0 01-2.1 2.475 1.433 1.433 0 01-1.2-.528H373v2.3h-1.436zm1.437 1.086a1.585 1.585 0 00.028.3.873.873 0 00.842.681c.625 0 .992-.519.992-1.3 0-.739-.33-1.294-.972-1.294a.907.907 0 00-.861.728 1.238 1.238 0 00-.028.253z" class="b" fill="#313647"/><path id="path4052" transform="translate(-354.815 -495.63)" d="M378.318 499.977a2.319 2.319 0 01-2.439 2.467 2.263 2.263 0 01-2.389-2.381 2.3 2.3 0 012.464-2.447 2.246 2.246 0 012.364 2.361zm-3.344.047c0 .794.331 1.389.945 1.389.558 0 .917-.556.917-1.389 0-.689-.264-1.389-.917-1.389-.693 0-.946.709-.946 1.389z" class="b" fill="#313647"/><path id="path4054" transform="translate(-351.182 -495.63)" d="M375.573 499.194c0-.578-.019-1.067-.039-1.475h1.247l.067.633h.028a1.694 1.694 0 011.428-.736c.944 0 1.653.622 1.653 1.983v2.742h-1.437v-2.561c0-.594-.208-1-.728-1a.768.768 0 00-.728.539 1.04 1.04 0 00-.056.361v2.664h-1.436z" class="b" fill="#313647"/><path id="path4056" transform="translate(-347.614 -496.851)" d="M377.541 503.562v-4.622h1.436v4.622zm2.25-6.633l-1.153 1.436h-.992l.811-1.436z" class="b" fill="#313647"/><path id="path4058" transform="translate(-346.27 -495.564)" d="M379.855 497.653l.622 2.147a10.76 10.76 0 01.267 1.122h.028c.075-.378.15-.728.256-1.122l.594-2.147h1.511l-1.719 4.622h-1.436l-1.681-4.622z" class="b" fill="#313647"/><path id="path4060" transform="translate(-343.011 -495.63)" d="M381.5 500.488c.047.595.631.878 1.3.878a4 4 0 001.275-.189l.189.975a4.556 4.556 0 01-1.672.283 2.218 2.218 0 01-2.467-2.353 2.315 2.315 0 012.336-2.467 2.049 2.049 0 012.058 2.306 3.35 3.35 0 01-.047.567zm1.692-.983a.836.836 0 00-.814-.936.945.945 0 00-.889.936z" class="b" fill="#313647"/><path id="path4062" transform="translate(-339.648 -496.901)" d="M382.022 496.9h1.436v6.711h-1.436z" class="b" fill="#313647"/><path id="path4064" transform="translate(-336.787 -495.63)" d="M383.67 499.194c0-.578-.019-1.067-.039-1.475h1.247l.067.633h.028a1.694 1.694 0 011.428-.736c.944 0 1.653.622 1.653 1.983v2.742h-1.436v-2.561c0-.594-.208-1-.728-1a.767.767 0 00-.728.539.978.978 0 00-.056.361v2.664h-1.436z" class="b" fill="#313647"/><path id="path4066" transform="translate(-333.413 -495.63)" d="M388.46 502.341l-.086-.464h-.028a1.662 1.662 0 01-1.322.567 1.417 1.417 0 01-1.494-1.417c0-1.2 1.078-1.778 2.714-1.767v-.067c0-.244-.133-.594-.842-.594a2.6 2.6 0 00-1.275.35l-.267-.928a3.813 3.813 0 011.8-.406 1.8 1.8 0 012.03 1.995v1.605a7.156 7.156 0 00.067 1.125zm-.169-2.183c-.756-.008-1.342.169-1.342.728a.514.514 0 00.567.547.789.789 0 00.747-.528 1.157 1.157 0 00.028-.247z" class="b" fill="#313647"/></g><path id="path4070" transform="translate(-356.541 -495.961)" d="M370.549 495.961h-11.511a2.5 2.5 0 00-2.5 2.5v25.5a2.5 2.5 0 002.5 2.5h11.511a2.5 2.5 0 002.5-2.5v-25.5a2.5 2.5 0 00-2.5-2.5zm-5.756 28.661a1.664 1.664 0 111.664-1.664 1.663 1.663 0 01-1.663 1.664zm6.292-4.139H358.5v-18.808h12.583z" class="b" fill="#313647"/></g></g></svg>
