<svg xmlns="http://www.w3.org/2000/svg" width="30" height="22.982" viewBox="0 0 30 22.982"><defs><style>.a,.b{fill:#ffca01;}.a{opacity:0;}</style></defs><g transform="translate(0 1)"><path class="a" d="M28.75,125.168H1.25a1.25,1.25,0,1,1,0-2.5h27.5a1.25,1.25,0,0,1,0,2.5Zm0,0" transform="translate(0 -113.085)"/><path class="b" d="M28.75,2.5H1.25a1.25,1.25,0,1,1,0-2.5h27.5a1.25,1.25,0,0,1,0,2.5Zm0,0" transform="translate(5.768 -1) rotate(45)"/><path class="b" d="M28.75,247.832H1.25a1.25,1.25,0,1,1,0-2.5h27.5a1.25,1.25,0,0,1,0,2.5Zm0,0" transform="translate(-169.475 -153.262) rotate(-45)"/></g></svg>